<svg xmlns="http://www.w3.org/2000/svg" xmlns:xlink="http://www.w3.org/1999/xlink" width="1080" zoomAndPan="magnify" viewBox="0 0 810 809.999993" height="1080" preserveAspectRatio="xMidYMid meet" version="1.0"><defs><g/><clipPath id="3470fd3312"><path d="M 64.128906 64.128906 L 745.871094 64.128906 L 745.871094 745.871094 L 64.128906 745.871094 Z M 64.128906 64.128906 " clip-rule="nonzero"/></clipPath><clipPath id="064e0a806b"><path d="M 102.378906 64.128906 L 707.621094 64.128906 C 717.765625 64.128906 727.496094 68.160156 734.667969 75.332031 C 741.839844 82.503906 745.871094 92.234375 745.871094 102.378906 L 745.871094 707.621094 C 745.871094 717.765625 741.839844 727.496094 734.667969 734.667969 C 727.496094 741.839844 717.765625 745.871094 707.621094 745.871094 L 102.378906 745.871094 C 92.234375 745.871094 82.503906 741.839844 75.332031 734.667969 C 68.160156 727.496094 64.128906 717.765625 64.128906 707.621094 L 64.128906 102.378906 C 64.128906 92.234375 68.160156 82.503906 75.332031 75.332031 C 82.503906 68.160156 92.234375 64.128906 102.378906 64.128906 Z M 102.378906 64.128906 " clip-rule="nonzero"/></clipPath><clipPath id="9aa8ae39be"><path d="M 190.019531 375 L 238 375 L 238 443 L 190.019531 443 Z M 190.019531 375 " clip-rule="nonzero"/></clipPath><clipPath id="177e8fd3b5"><path d="M 244 422 L 273.269531 422 L 273.269531 458.238281 L 244 458.238281 Z M 244 422 " clip-rule="nonzero"/></clipPath><clipPath id="8c2abd96da"><path d="M 238 347.238281 L 257 347.238281 L 257 370 L 238 370 Z M 238 347.238281 " clip-rule="nonzero"/></clipPath><clipPath id="9f37c7eccf"><path d="M 594.019531 178 L 642 178 L 642 246 L 594.019531 246 Z M 594.019531 178 " clip-rule="nonzero"/></clipPath><clipPath id="9b58bdb785"><path d="M 648 225 L 677.269531 225 L 677.269531 261.132812 L 648 261.132812 Z M 648 225 " clip-rule="nonzero"/></clipPath><clipPath id="937988856e"><path d="M 642 150.132812 L 661 150.132812 L 661 173 L 642 173 Z M 642 150.132812 " clip-rule="nonzero"/></clipPath></defs><g clip-path="url(#3470fd3312)"><g clip-path="url(#064e0a806b)"><path fill="#fffdf5" d="M 64.128906 64.128906 L 745.871094 64.128906 L 745.871094 745.871094 L 64.128906 745.871094 Z M 64.128906 64.128906 " fill-opacity="1" fill-rule="nonzero"/></g></g><g fill="#005ae0" fill-opacity="1"><g transform="translate(64.129277, 283.496333)"><g><path d="M 78.125 -7.015625 C 77.21875 -7.015625 75.796875 -6.394531 73.859375 -5.15625 C 71.929688 -3.925781 70.40625 -3.039062 69.28125 -2.5 C 65.769531 -0.789062 62.097656 0.488281 58.265625 1.34375 C 54.441406 2.207031 50.550781 2.640625 46.59375 2.640625 C 33.445312 2.640625 22.988281 -1.382812 15.21875 -9.4375 C 7.457031 -17.5 3.578125 -28.375 3.578125 -42.0625 C 3.578125 -50.707031 5.0625 -58.71875 8.03125 -66.09375 C 11 -73.476562 15.367188 -80.03125 21.140625 -85.75 C 26.628906 -91.101562 32.941406 -95.234375 40.078125 -98.140625 C 47.210938 -101.046875 54.601562 -102.5 62.25 -102.5 C 69.09375 -102.5 75.441406 -101.054688 81.296875 -98.171875 C 82.191406 -97.722656 82.753906 -97.5 82.984375 -97.5 C 83.335938 -97.5 83.894531 -97.675781 84.65625 -98.03125 C 85.425781 -98.394531 86.015625 -98.578125 86.421875 -98.578125 C 87.273438 -98.578125 88.109375 -98.25 88.921875 -97.59375 C 89.734375 -96.945312 90.613281 -95.898438 91.5625 -94.453125 C 93.09375 -92.023438 94.269531 -89.550781 95.09375 -87.03125 C 95.925781 -84.507812 96.34375 -82.238281 96.34375 -80.21875 C 96.34375 -77.507812 95.722656 -75.445312 94.484375 -74.03125 C 93.253906 -72.613281 91.445312 -71.90625 89.0625 -71.90625 C 87.707031 -71.90625 86.421875 -72.226562 85.203125 -72.875 C 83.992188 -73.53125 82.914062 -74.515625 81.96875 -75.828125 C 81.695312 -76.179688 81.25 -76.785156 80.625 -77.640625 C 74.8125 -85.523438 68.644531 -89.46875 62.125 -89.46875 C 52.84375 -89.46875 45.3125 -85.335938 39.53125 -77.078125 C 33.75 -68.816406 30.859375 -58.023438 30.859375 -44.703125 C 30.859375 -34.929688 33.019531 -27.082031 37.34375 -21.15625 C 41.664062 -15.238281 47.335938 -12.28125 54.359375 -12.28125 C 57.503906 -12.28125 60.695312 -12.988281 63.9375 -14.40625 C 67.175781 -15.832031 70.53125 -17.984375 74 -20.859375 C 75.125 -21.804688 76.539062 -23.25 78.25 -25.1875 C 80.90625 -28.195312 83.113281 -29.703125 84.875 -29.703125 C 86.351562 -29.703125 87.53125 -29.140625 88.40625 -28.015625 C 89.289062 -26.890625 89.734375 -25.382812 89.734375 -23.5 C 89.734375 -19.664062 88.640625 -15.914062 86.453125 -12.25 C 84.273438 -8.582031 82.101562 -6.75 79.9375 -6.75 C 79.757812 -6.75 79.46875 -6.789062 79.0625 -6.875 C 78.65625 -6.96875 78.34375 -7.015625 78.125 -7.015625 Z M 78.125 -7.015625 "/></g></g></g><g fill="#005ae0" fill-opacity="1"><g transform="translate(150.705061, 283.496333)"><g><path d="M 41.046875 -61.375 C 36.910156 -61.375 33.273438 -58.289062 30.140625 -52.125 C 27.015625 -45.957031 25.453125 -38.441406 25.453125 -29.578125 C 25.453125 -23.140625 26.304688 -18.117188 28.015625 -14.515625 C 29.734375 -10.910156 32.097656 -9.109375 35.109375 -9.109375 C 39.390625 -9.109375 43.046875 -12.304688 46.078125 -18.703125 C 49.117188 -25.097656 50.640625 -33.109375 50.640625 -42.734375 C 50.640625 -48.503906 49.769531 -53.050781 48.03125 -56.375 C 46.300781 -59.707031 43.972656 -61.375 41.046875 -61.375 Z M 0.8125 -29.03125 C 0.8125 -34.65625 1.84375 -39.910156 3.90625 -44.796875 C 5.976562 -49.679688 9.109375 -54.285156 13.296875 -58.609375 C 17.523438 -63.015625 22.34375 -66.421875 27.75 -68.828125 C 33.15625 -71.242188 38.644531 -72.453125 44.21875 -72.453125 C 53.632812 -72.453125 61.15625 -69.679688 66.78125 -64.140625 C 72.40625 -58.609375 75.21875 -51.207031 75.21875 -41.9375 C 75.21875 -36.488281 74.179688 -31.160156 72.109375 -25.953125 C 70.035156 -20.753906 67.066406 -16.066406 63.203125 -11.890625 C 59.148438 -7.429688 54.46875 -4.007812 49.15625 -1.625 C 43.84375 0.757812 38.191406 1.953125 32.203125 1.953125 C 23.023438 1.953125 15.5 -0.957031 9.625 -6.78125 C 3.75 -12.613281 0.8125 -20.03125 0.8125 -29.03125 Z M 0.8125 -29.03125 "/></g></g></g><g fill="#005ae0" fill-opacity="1"><g transform="translate(219.590893, 283.496333)"><g><path d="M 28.90625 -68.59375 L 29.4375 -65.296875 C 29.75 -63.804688 30.003906 -62.734375 30.203125 -62.078125 C 30.410156 -61.429688 30.628906 -61.109375 30.859375 -61.109375 C 30.941406 -61.109375 31.625 -61.625 32.90625 -62.65625 C 34.195312 -63.695312 35.539062 -64.664062 36.9375 -65.5625 C 40.269531 -67.71875 43.410156 -69.3125 46.359375 -70.34375 C 49.304688 -71.382812 52.195312 -71.90625 55.03125 -71.90625 C 58.039062 -71.90625 60.601562 -71.316406 62.71875 -70.140625 C 64.84375 -68.972656 66.671875 -67.15625 68.203125 -64.6875 C 68.515625 -64.1875 68.894531 -63.507812 69.34375 -62.65625 C 69.96875 -61.4375 70.460938 -60.828125 70.828125 -60.828125 C 71.003906 -60.828125 72.0625 -61.523438 74 -62.921875 C 75.300781 -63.867188 76.382812 -64.632812 77.25 -65.21875 C 80.4375 -67.425781 83.582031 -69.09375 86.6875 -70.21875 C 89.800781 -71.34375 92.753906 -71.90625 95.546875 -71.90625 C 100.992188 -71.90625 105.054688 -70.257812 107.734375 -66.96875 C 110.410156 -63.6875 111.75 -58.738281 111.75 -52.125 C 111.75 -47.125 111.148438 -41 109.953125 -33.75 C 108.765625 -26.507812 108.171875 -21.851562 108.171875 -19.78125 C 108.171875 -18.476562 108.394531 -17.578125 108.84375 -17.078125 C 109.289062 -16.585938 110.125 -16.34375 111.34375 -16.34375 C 111.476562 -16.34375 111.75 -16.363281 112.15625 -16.40625 C 112.5625 -16.445312 112.875 -16.46875 113.09375 -16.46875 C 114.082031 -16.46875 114.789062 -16.253906 115.21875 -15.828125 C 115.644531 -15.398438 115.859375 -14.738281 115.859375 -13.84375 C 115.859375 -12.3125 115.351562 -10.789062 114.34375 -9.28125 C 113.332031 -7.769531 111.8125 -6.296875 109.78125 -4.859375 C 106.8125 -2.703125 103.628906 -1.003906 100.234375 0.234375 C 96.835938 1.472656 93.765625 2.09375 91.015625 2.09375 C 87.910156 2.09375 85.726562 1.617188 84.46875 0.671875 C 83.207031 -0.273438 82.578125 -1.875 82.578125 -4.125 C 82.578125 -5.65625 83.050781 -8.78125 84 -13.5 C 84.445312 -15.75 84.804688 -17.53125 85.078125 -18.84375 C 86.242188 -25.414062 87.148438 -31.128906 87.796875 -35.984375 C 88.453125 -40.847656 88.78125 -44.335938 88.78125 -46.453125 C 88.78125 -49.335938 88.285156 -51.488281 87.296875 -52.90625 C 86.304688 -54.320312 84.820312 -55.03125 82.84375 -55.03125 C 78.707031 -55.03125 75.535156 -52.460938 73.328125 -47.328125 C 71.117188 -42.203125 69.539062 -33.628906 68.59375 -21.609375 C 68.507812 -20.484375 68.398438 -18.929688 68.265625 -16.953125 C 67.765625 -9.742188 67 -5.46875 65.96875 -4.125 C 64.84375 -2.726562 62.523438 -1.46875 59.015625 -0.34375 C 55.503906 0.78125 51.878906 1.34375 48.140625 1.34375 C 46.253906 1.34375 44.859375 0.945312 43.953125 0.15625 C 43.054688 -0.625 42.609375 -1.867188 42.609375 -3.578125 C 42.609375 -4.523438 43.035156 -7.363281 43.890625 -12.09375 C 44.378906 -14.875 44.785156 -17.125 45.109375 -18.84375 C 46.679688 -28.195312 47.710938 -34.675781 48.203125 -38.28125 C 48.703125 -41.882812 48.953125 -44.609375 48.953125 -46.453125 C 48.953125 -49.285156 48.429688 -51.421875 47.390625 -52.859375 C 46.359375 -54.304688 44.851562 -55.03125 42.875 -55.03125 C 38.726562 -55.03125 35.550781 -52.460938 33.34375 -47.328125 C 31.144531 -42.203125 29.570312 -33.628906 28.625 -21.609375 C 28.539062 -20.484375 28.429688 -18.929688 28.296875 -16.953125 C 27.796875 -9.742188 27.03125 -5.46875 26 -4.125 C 24.875 -2.675781 22.53125 -1.398438 18.96875 -0.296875 C 15.414062 0.796875 11.679688 1.34375 7.765625 1.34375 C 5.960938 1.34375 4.65625 0.992188 3.84375 0.296875 C 3.039062 -0.398438 2.640625 -1.507812 2.640625 -3.03125 C 2.640625 -4.75 3.359375 -9.34375 4.796875 -16.8125 C 5.609375 -20.820312 6.210938 -24.019531 6.609375 -26.40625 C 7.691406 -32.164062 8.515625 -37.148438 9.078125 -41.359375 C 9.640625 -45.566406 9.921875 -48.660156 9.921875 -50.640625 C 9.921875 -53.160156 8.523438 -54.578125 5.734375 -54.890625 C 5.648438 -54.890625 5.582031 -54.890625 5.53125 -54.890625 C 5.351562 -54.941406 5.082031 -55.007812 4.71875 -55.09375 C 1.125 -56.039062 -0.671875 -57.347656 -0.671875 -59.015625 C -0.671875 -59.960938 -0.335938 -60.863281 0.328125 -61.71875 C 1.003906 -62.570312 2.039062 -63.425781 3.4375 -64.28125 C 4.382812 -64.863281 5.53125 -65.457031 6.875 -66.0625 C 8.226562 -66.675781 10.078125 -67.429688 12.421875 -68.328125 C 15.441406 -69.410156 18.15625 -70.273438 20.5625 -70.921875 C 22.96875 -71.578125 24.644531 -71.90625 25.59375 -71.90625 C 26.351562 -71.90625 27.035156 -71.585938 27.640625 -70.953125 C 28.253906 -70.328125 28.675781 -69.539062 28.90625 -68.59375 Z M 28.90625 -68.59375 "/></g></g></g><g fill="#005ae0" fill-opacity="1"><g transform="translate(330.473494, 283.496333)"><g><path d="M 38.15625 -92.234375 C 38.15625 -88.898438 36.625 -86.039062 33.5625 -83.65625 C 30.5 -81.269531 26.785156 -80.078125 22.421875 -80.078125 C 18.640625 -80.078125 15.664062 -80.929688 13.5 -82.640625 C 11.34375 -84.347656 10.265625 -86.664062 10.265625 -89.59375 C 10.265625 -93.289062 11.804688 -96.34375 14.890625 -98.75 C 17.972656 -101.15625 21.898438 -102.359375 26.671875 -102.359375 C 30.140625 -102.359375 32.921875 -101.421875 35.015625 -99.546875 C 37.109375 -97.679688 38.15625 -95.242188 38.15625 -92.234375 Z M 2.765625 -4.25 C 2.765625 -5.644531 3.484375 -10.035156 4.921875 -17.421875 C 5.648438 -21.109375 6.210938 -24.054688 6.609375 -26.265625 C 7.515625 -31.171875 8.203125 -35.515625 8.671875 -39.296875 C 9.148438 -43.078125 9.390625 -45.9375 9.390625 -47.875 C 9.390625 -50.164062 9.128906 -51.757812 8.609375 -52.65625 C 8.085938 -53.5625 6.925781 -54.265625 5.125 -54.765625 C 4.988281 -54.804688 4.832031 -54.847656 4.65625 -54.890625 C 0.925781 -56.015625 -0.9375 -57.546875 -0.9375 -59.484375 C -0.9375 -60.878906 -0.148438 -62.21875 1.421875 -63.5 C 2.992188 -64.78125 5.421875 -66.050781 8.703125 -67.3125 C 12.847656 -68.9375 16.84375 -70.195312 20.6875 -71.09375 C 24.539062 -72 27.679688 -72.453125 30.109375 -72.453125 C 31.460938 -72.453125 32.566406 -71.976562 33.421875 -71.03125 C 34.273438 -70.082031 34.703125 -68.84375 34.703125 -67.3125 C 34.703125 -66.457031 34.285156 -63.597656 33.453125 -58.734375 C 32.617188 -53.878906 31.929688 -49.5625 31.390625 -45.78125 C 30.398438 -39.070312 29.625 -33.410156 29.0625 -28.796875 C 28.5 -24.179688 28.21875 -21.265625 28.21875 -20.046875 C 28.21875 -18.566406 28.453125 -17.597656 28.921875 -17.140625 C 29.398438 -16.691406 30.316406 -16.46875 31.671875 -16.46875 C 31.847656 -16.46875 32.148438 -16.488281 32.578125 -16.53125 C 33.003906 -16.582031 33.304688 -16.609375 33.484375 -16.609375 C 35.109375 -16.609375 36.3125 -16.316406 37.09375 -15.734375 C 37.882812 -15.148438 38.28125 -14.296875 38.28125 -13.171875 C 38.28125 -11.722656 37.707031 -10.289062 36.5625 -8.875 C 35.414062 -7.457031 33.738281 -6.070312 31.53125 -4.71875 C 28.15625 -2.695312 24.5 -1.082031 20.5625 0.125 C 16.625 1.34375 13.078125 1.953125 9.921875 1.953125 C 7.453125 1.953125 5.640625 1.445312 4.484375 0.4375 C 3.335938 -0.570312 2.765625 -2.132812 2.765625 -4.25 Z M 2.765625 -4.25 "/></g></g></g><g fill="#005ae0" fill-opacity="1"><g transform="translate(361.008577, 283.496333)"><g><path d="M 29.4375 -65.296875 C 29.75 -63.671875 30.03125 -62.539062 30.28125 -61.90625 C 30.53125 -61.28125 30.8125 -60.96875 31.125 -60.96875 C 31.394531 -60.96875 32.441406 -61.640625 34.265625 -62.984375 C 36.085938 -64.335938 37.851562 -65.46875 39.5625 -66.375 C 42.894531 -68.125 46.113281 -69.4375 49.21875 -70.3125 C 52.320312 -71.195312 55.269531 -71.640625 58.0625 -71.640625 C 63.78125 -71.640625 68.023438 -70.019531 70.796875 -66.78125 C 73.566406 -63.539062 74.953125 -58.609375 74.953125 -51.984375 C 74.953125 -47.078125 74.304688 -41.046875 73.015625 -33.890625 C 71.734375 -26.734375 71.09375 -22.117188 71.09375 -20.046875 C 71.09375 -18.609375 71.328125 -17.628906 71.796875 -17.109375 C 72.273438 -16.597656 73.144531 -16.34375 74.40625 -16.34375 C 74.632812 -16.34375 74.972656 -16.363281 75.421875 -16.40625 C 75.867188 -16.445312 76.226562 -16.46875 76.5 -16.46875 C 77.488281 -16.46875 78.21875 -16.253906 78.6875 -15.828125 C 79.164062 -15.398438 79.40625 -14.738281 79.40625 -13.84375 C 79.40625 -12.21875 78.84375 -10.648438 77.71875 -9.140625 C 76.59375 -7.640625 74.925781 -6.164062 72.71875 -4.71875 C 69.570312 -2.65625 66.285156 -1.03125 62.859375 0.15625 C 59.441406 1.351562 56.335938 1.953125 53.546875 1.953125 C 50.523438 1.953125 48.472656 1.515625 47.390625 0.640625 C 46.316406 -0.234375 45.78125 -1.863281 45.78125 -4.25 C 45.78125 -5.738281 46.410156 -9.789062 47.671875 -16.40625 C 47.847656 -17.351562 48.003906 -18.117188 48.140625 -18.703125 C 49.628906 -26.535156 50.664062 -32.507812 51.25 -36.625 C 51.832031 -40.75 52.125 -43.9375 52.125 -46.1875 C 52.125 -49.25 51.617188 -51.488281 50.609375 -52.90625 C 49.597656 -54.320312 47.988281 -55.03125 45.78125 -55.03125 C 40.875 -55.03125 37.125 -52.441406 34.53125 -47.265625 C 31.945312 -42.085938 30.070312 -33.148438 28.90625 -20.453125 C 28.8125 -19.515625 28.695312 -18.1875 28.5625 -16.46875 C 28.0625 -9.71875 27.207031 -5.601562 26 -4.125 C 24.875 -2.863281 22.5 -1.632812 18.875 -0.4375 C 15.25 0.75 11.726562 1.34375 8.3125 1.34375 C 6.238281 1.34375 4.773438 1.003906 3.921875 0.328125 C 3.066406 -0.335938 2.640625 -1.457031 2.640625 -3.03125 C 2.640625 -4.75 3.359375 -9.34375 4.796875 -16.8125 C 5.609375 -20.820312 6.210938 -24.019531 6.609375 -26.40625 C 7.691406 -32.164062 8.515625 -37.148438 9.078125 -41.359375 C 9.640625 -45.566406 9.921875 -48.660156 9.921875 -50.640625 C 9.921875 -53.160156 8.523438 -54.578125 5.734375 -54.890625 C 5.648438 -54.890625 5.582031 -54.890625 5.53125 -54.890625 C 5.351562 -54.941406 5.082031 -55.007812 4.71875 -55.09375 C 1.125 -56.039062 -0.671875 -57.347656 -0.671875 -59.015625 C -0.671875 -59.960938 -0.335938 -60.863281 0.328125 -61.71875 C 1.003906 -62.570312 2.039062 -63.425781 3.4375 -64.28125 C 4.382812 -64.863281 5.53125 -65.457031 6.875 -66.0625 C 8.226562 -66.675781 10.078125 -67.429688 12.421875 -68.328125 C 15.253906 -69.316406 17.875 -70.113281 20.28125 -70.71875 C 22.695312 -71.332031 24.46875 -71.640625 25.59375 -71.640625 C 26.40625 -71.640625 27.113281 -71.359375 27.71875 -70.796875 C 28.320312 -70.234375 28.71875 -69.5 28.90625 -68.59375 Z M 29.4375 -65.296875 "/></g></g></g><g fill="#005ae0" fill-opacity="1"><g transform="translate(434.68825, 283.496333)"><g><path d="M 17.015625 4.046875 C 16.742188 4.898438 16.5625 5.570312 16.46875 6.0625 C 16.382812 6.5625 16.34375 7.039062 16.34375 7.5 C 16.34375 10.914062 17.9375 13.578125 21.125 15.484375 C 24.320312 17.398438 28.804688 18.359375 34.578125 18.359375 C 39.929688 18.359375 44.238281 17.492188 47.5 15.765625 C 50.757812 14.035156 52.390625 11.816406 52.390625 9.109375 C 52.390625 7.578125 51.894531 6.441406 50.90625 5.703125 C 49.914062 4.960938 48.429688 4.59375 46.453125 4.59375 C 45.421875 4.59375 42.929688 4.816406 38.984375 5.265625 C 35.046875 5.710938 31.640625 5.9375 28.765625 5.9375 C 27.054688 5.9375 25.265625 5.78125 23.390625 5.46875 C 21.523438 5.15625 19.398438 4.679688 17.015625 4.046875 Z M 27.6875 -42.609375 C 27.6875 -38.242188 28.53125 -34.957031 30.21875 -32.75 C 31.90625 -30.539062 34.414062 -29.4375 37.75 -29.4375 C 41.84375 -29.4375 45.351562 -31.472656 48.28125 -35.546875 C 51.207031 -39.617188 52.671875 -44.601562 52.671875 -50.5 C 52.671875 -54.507812 51.789062 -57.648438 50.03125 -59.921875 C 48.28125 -62.191406 45.847656 -63.328125 42.734375 -63.328125 C 38.503906 -63.328125 34.9375 -61.359375 32.03125 -57.421875 C 29.132812 -53.484375 27.6875 -48.546875 27.6875 -42.609375 Z M 8.703125 0.671875 C 6.503906 -0.492188 4.851562 -2 3.75 -3.84375 C 2.644531 -5.6875 2.09375 -7.867188 2.09375 -10.390625 C 2.09375 -13.722656 3.128906 -16.613281 5.203125 -19.0625 C 7.273438 -21.519531 10.5625 -23.738281 15.0625 -25.71875 C 12.351562 -27.75 10.242188 -30.394531 8.734375 -33.65625 C 7.234375 -36.914062 6.484375 -40.53125 6.484375 -44.5 C 6.484375 -52.820312 9.722656 -59.5625 16.203125 -64.71875 C 22.679688 -69.875 31.257812 -72.453125 41.9375 -72.453125 C 44.269531 -72.453125 46.820312 -72.316406 49.59375 -72.046875 C 52.363281 -71.773438 55.320312 -71.367188 58.46875 -70.828125 C 60.3125 -71.773438 62.097656 -72.96875 63.828125 -74.40625 C 65.566406 -75.84375 67.289062 -77.550781 69 -79.53125 C 70.71875 -78.144531 72.023438 -76.804688 72.921875 -75.515625 C 73.816406 -74.234375 74.265625 -73.03125 74.265625 -71.90625 C 74.265625 -70.644531 73.769531 -69.316406 72.78125 -67.921875 C 71.789062 -66.523438 70.304688 -65.085938 68.328125 -63.609375 C 70.085938 -61.359375 71.40625 -59.023438 72.28125 -56.609375 C 73.15625 -54.203125 73.59375 -51.648438 73.59375 -48.953125 C 73.59375 -40.359375 70.304688 -33.4375 63.734375 -28.1875 C 57.160156 -22.945312 48.40625 -20.328125 37.46875 -20.328125 C 34.863281 -20.328125 32.332031 -20.515625 29.875 -20.890625 C 27.425781 -21.273438 24.941406 -21.875 22.421875 -22.6875 C 21.609375 -21.601562 21.007812 -20.609375 20.625 -19.703125 C 20.238281 -18.804688 20.046875 -18 20.046875 -17.28125 C 20.046875 -15.4375 20.789062 -14.03125 22.28125 -13.0625 C 23.769531 -12.09375 25.976562 -11.609375 28.90625 -11.609375 C 31.6875 -11.609375 35.96875 -11.84375 41.75 -12.3125 C 47.539062 -12.789062 51.921875 -13.03125 54.890625 -13.03125 C 60.109375 -13.03125 64.113281 -11.734375 66.90625 -9.140625 C 69.695312 -6.554688 71.09375 -2.859375 71.09375 1.953125 C 71.09375 9.742188 67.207031 16.09375 59.4375 21 C 51.675781 25.90625 41.5 28.359375 28.90625 28.359375 C 20.394531 28.359375 13.671875 26.925781 8.734375 24.0625 C 3.804688 21.207031 1.34375 17.328125 1.34375 12.421875 C 1.34375 10.484375 1.984375 8.488281 3.265625 6.4375 C 4.554688 4.394531 6.367188 2.472656 8.703125 0.671875 Z M 8.703125 0.671875 "/></g></g></g><g fill="#005ae0" fill-opacity="1"><g transform="translate(505.204654, 283.496333)"><g/></g></g><g fill="#005ae0" fill-opacity="1"><g transform="translate(384.968779, 481.016654)"><g><path d="M 25.859375 -9.109375 C 28.421875 -9.109375 30.421875 -9.726562 31.859375 -10.96875 C 33.304688 -12.207031 34.03125 -13.953125 34.03125 -16.203125 C 34.03125 -18.679688 31.304688 -21.742188 25.859375 -25.390625 C 24.554688 -26.285156 23.546875 -27.003906 22.828125 -27.546875 C 15.984375 -32.234375 11.457031 -36.207031 9.25 -39.46875 C 7.039062 -42.726562 5.9375 -46.5 5.9375 -50.78125 C 5.9375 -57.164062 8.410156 -62.375 13.359375 -66.40625 C 18.316406 -70.4375 24.820312 -72.453125 32.875 -72.453125 C 35.894531 -72.453125 38.921875 -72.125 41.953125 -71.46875 C 44.992188 -70.8125 48.023438 -69.851562 51.046875 -68.59375 C 53.160156 -67.65625 54.53125 -66.664062 55.15625 -65.625 C 55.789062 -64.59375 56.109375 -62.863281 56.109375 -60.4375 C 56.109375 -56.914062 55.578125 -54.210938 54.515625 -52.328125 C 53.460938 -50.441406 51.921875 -49.5 49.890625 -49.5 C 47.773438 -49.5 45.929688 -50.9375 44.359375 -53.8125 C 43.867188 -54.757812 43.460938 -55.503906 43.140625 -56.046875 C 42.066406 -57.796875 40.804688 -59.117188 39.359375 -60.015625 C 37.921875 -60.921875 36.367188 -61.375 34.703125 -61.375 C 32.679688 -61.375 31.050781 -60.820312 29.8125 -59.71875 C 28.570312 -58.613281 27.953125 -57.140625 27.953125 -55.296875 C 27.953125 -52.328125 30.695312 -49.109375 36.1875 -45.640625 C 37.175781 -45.054688 37.921875 -44.582031 38.421875 -44.21875 C 45.128906 -39.988281 49.550781 -36.242188 51.6875 -32.984375 C 53.820312 -29.722656 54.890625 -25.726562 54.890625 -21 C 54.890625 -14.0625 52.210938 -8.5 46.859375 -4.3125 C 41.503906 -0.132812 34.320312 1.953125 25.3125 1.953125 C 18.113281 1.953125 11.867188 0.613281 6.578125 -2.0625 C 1.296875 -4.738281 -1.34375 -7.695312 -1.34375 -10.9375 C -1.34375 -14.945312 -0.582031 -18.253906 0.9375 -20.859375 C 2.46875 -23.472656 4.359375 -24.78125 6.609375 -24.78125 C 8.546875 -24.78125 10.238281 -23.25 11.6875 -20.1875 C 12.351562 -18.75 12.9375 -17.625 13.4375 -16.8125 C 14.832031 -14.425781 16.644531 -12.546875 18.875 -11.171875 C 21.101562 -9.796875 23.429688 -9.109375 25.859375 -9.109375 Z M 25.859375 -9.109375 "/></g></g></g><g fill="#005ae0" fill-opacity="1"><g transform="translate(443.194062, 481.016654)"><g><path d="M 41.046875 -61.375 C 36.910156 -61.375 33.273438 -58.289062 30.140625 -52.125 C 27.015625 -45.957031 25.453125 -38.441406 25.453125 -29.578125 C 25.453125 -23.140625 26.304688 -18.117188 28.015625 -14.515625 C 29.734375 -10.910156 32.097656 -9.109375 35.109375 -9.109375 C 39.390625 -9.109375 43.046875 -12.304688 46.078125 -18.703125 C 49.117188 -25.097656 50.640625 -33.109375 50.640625 -42.734375 C 50.640625 -48.503906 49.769531 -53.050781 48.03125 -56.375 C 46.300781 -59.707031 43.972656 -61.375 41.046875 -61.375 Z M 0.8125 -29.03125 C 0.8125 -34.65625 1.84375 -39.910156 3.90625 -44.796875 C 5.976562 -49.679688 9.109375 -54.285156 13.296875 -58.609375 C 17.523438 -63.015625 22.34375 -66.421875 27.75 -68.828125 C 33.15625 -71.242188 38.644531 -72.453125 44.21875 -72.453125 C 53.632812 -72.453125 61.15625 -69.679688 66.78125 -64.140625 C 72.40625 -58.609375 75.21875 -51.207031 75.21875 -41.9375 C 75.21875 -36.488281 74.179688 -31.160156 72.109375 -25.953125 C 70.035156 -20.753906 67.066406 -16.066406 63.203125 -11.890625 C 59.148438 -7.429688 54.46875 -4.007812 49.15625 -1.625 C 43.84375 0.757812 38.191406 1.953125 32.203125 1.953125 C 23.023438 1.953125 15.5 -0.957031 9.625 -6.78125 C 3.75 -12.613281 0.8125 -20.03125 0.8125 -29.03125 Z M 0.8125 -29.03125 "/></g></g></g><g fill="#005ae0" fill-opacity="1"><g transform="translate(518.029709, 481.016654)"><g><path d="M 41.046875 -61.375 C 36.910156 -61.375 33.273438 -58.289062 30.140625 -52.125 C 27.015625 -45.957031 25.453125 -38.441406 25.453125 -29.578125 C 25.453125 -23.140625 26.304688 -18.117188 28.015625 -14.515625 C 29.734375 -10.910156 32.097656 -9.109375 35.109375 -9.109375 C 39.390625 -9.109375 43.046875 -12.304688 46.078125 -18.703125 C 49.117188 -25.097656 50.640625 -33.109375 50.640625 -42.734375 C 50.640625 -48.503906 49.769531 -53.050781 48.03125 -56.375 C 46.300781 -59.707031 43.972656 -61.375 41.046875 -61.375 Z M 0.8125 -29.03125 C 0.8125 -34.65625 1.84375 -39.910156 3.90625 -44.796875 C 5.976562 -49.679688 9.109375 -54.285156 13.296875 -58.609375 C 17.523438 -63.015625 22.34375 -66.421875 27.75 -68.828125 C 33.15625 -71.242188 38.644531 -72.453125 44.21875 -72.453125 C 53.632812 -72.453125 61.15625 -69.679688 66.78125 -64.140625 C 72.40625 -58.609375 75.21875 -51.207031 75.21875 -41.9375 C 75.21875 -36.488281 74.179688 -31.160156 72.109375 -25.953125 C 70.035156 -20.753906 67.066406 -16.066406 63.203125 -11.890625 C 59.148438 -7.429688 54.46875 -4.007812 49.15625 -1.625 C 43.84375 0.757812 38.191406 1.953125 32.203125 1.953125 C 23.023438 1.953125 15.5 -0.957031 9.625 -6.78125 C 3.75 -12.613281 0.8125 -20.03125 0.8125 -29.03125 Z M 0.8125 -29.03125 "/></g></g></g><g fill="#005ae0" fill-opacity="1"><g transform="translate(592.865364, 481.016654)"><g><path d="M 29.4375 -65.296875 C 29.75 -63.671875 30.03125 -62.539062 30.28125 -61.90625 C 30.53125 -61.28125 30.8125 -60.96875 31.125 -60.96875 C 31.394531 -60.96875 32.441406 -61.640625 34.265625 -62.984375 C 36.085938 -64.335938 37.851562 -65.46875 39.5625 -66.375 C 42.894531 -68.125 46.113281 -69.4375 49.21875 -70.3125 C 52.320312 -71.195312 55.269531 -71.640625 58.0625 -71.640625 C 63.78125 -71.640625 68.023438 -70.019531 70.796875 -66.78125 C 73.566406 -63.539062 74.953125 -58.609375 74.953125 -51.984375 C 74.953125 -47.078125 74.304688 -41.046875 73.015625 -33.890625 C 71.734375 -26.734375 71.09375 -22.117188 71.09375 -20.046875 C 71.09375 -18.609375 71.328125 -17.628906 71.796875 -17.109375 C 72.273438 -16.597656 73.144531 -16.34375 74.40625 -16.34375 C 74.632812 -16.34375 74.972656 -16.363281 75.421875 -16.40625 C 75.867188 -16.445312 76.226562 -16.46875 76.5 -16.46875 C 77.488281 -16.46875 78.21875 -16.253906 78.6875 -15.828125 C 79.164062 -15.398438 79.40625 -14.738281 79.40625 -13.84375 C 79.40625 -12.21875 78.84375 -10.648438 77.71875 -9.140625 C 76.59375 -7.640625 74.925781 -6.164062 72.71875 -4.71875 C 69.570312 -2.65625 66.285156 -1.03125 62.859375 0.15625 C 59.441406 1.351562 56.335938 1.953125 53.546875 1.953125 C 50.523438 1.953125 48.472656 1.515625 47.390625 0.640625 C 46.316406 -0.234375 45.78125 -1.863281 45.78125 -4.25 C 45.78125 -5.738281 46.410156 -9.789062 47.671875 -16.40625 C 47.847656 -17.351562 48.003906 -18.117188 48.140625 -18.703125 C 49.628906 -26.535156 50.664062 -32.507812 51.25 -36.625 C 51.832031 -40.75 52.125 -43.9375 52.125 -46.1875 C 52.125 -49.25 51.617188 -51.488281 50.609375 -52.90625 C 49.597656 -54.320312 47.988281 -55.03125 45.78125 -55.03125 C 40.875 -55.03125 37.125 -52.441406 34.53125 -47.265625 C 31.945312 -42.085938 30.070312 -33.148438 28.90625 -20.453125 C 28.8125 -19.515625 28.695312 -18.1875 28.5625 -16.46875 C 28.0625 -9.71875 27.207031 -5.601562 26 -4.125 C 24.875 -2.863281 22.5 -1.632812 18.875 -0.4375 C 15.25 0.75 11.726562 1.34375 8.3125 1.34375 C 6.238281 1.34375 4.773438 1.003906 3.921875 0.328125 C 3.066406 -0.335938 2.640625 -1.457031 2.640625 -3.03125 C 2.640625 -4.75 3.359375 -9.34375 4.796875 -16.8125 C 5.609375 -20.820312 6.210938 -24.019531 6.609375 -26.40625 C 7.691406 -32.164062 8.515625 -37.148438 9.078125 -41.359375 C 9.640625 -45.566406 9.921875 -48.660156 9.921875 -50.640625 C 9.921875 -53.160156 8.523438 -54.578125 5.734375 -54.890625 C 5.648438 -54.890625 5.582031 -54.890625 5.53125 -54.890625 C 5.351562 -54.941406 5.082031 -55.007812 4.71875 -55.09375 C 1.125 -56.039062 -0.671875 -57.347656 -0.671875 -59.015625 C -0.671875 -59.960938 -0.335938 -60.863281 0.328125 -61.71875 C 1.003906 -62.570312 2.039062 -63.425781 3.4375 -64.28125 C 4.382812 -64.863281 5.53125 -65.457031 6.875 -66.0625 C 8.226562 -66.675781 10.078125 -67.429688 12.421875 -68.328125 C 15.253906 -69.316406 17.875 -70.113281 20.28125 -70.71875 C 22.695312 -71.332031 24.46875 -71.640625 25.59375 -71.640625 C 26.40625 -71.640625 27.113281 -71.359375 27.71875 -70.796875 C 28.320312 -70.234375 28.71875 -69.5 28.90625 -68.59375 Z M 29.4375 -65.296875 "/></g></g></g><g clip-path="url(#9aa8ae39be)"><path fill="#005ae0" d="M 237.09375 405.324219 C 235.90625 406.066406 235.03125 407.09375 233.53125 407.585938 C 226.140625 410.007812 220.410156 414.507812 218.058594 422.144531 C 216.378906 427.628906 215.257812 433.292969 214.207031 438.960938 C 213.894531 440.640625 212.996094 441.648438 211.988281 442.722656 C 211.878906 442.835938 211.003906 442.542969 210.9375 442.296875 C 210.734375 441.535156 210.714844 440.707031 210.667969 439.902344 C 210.265625 432.621094 209.683594 425.34375 207.085938 418.449219 C 205.652344 414.664062 203.726562 411.082031 199.941406 409.175781 C 197.589844 407.992188 194.925781 407.476562 192.394531 406.667969 C 191.96875 406.535156 191.5 406.492188 191.097656 406.3125 C 190.292969 405.976562 190.066406 404.585938 190.785156 404.09375 C 191.253906 403.78125 191.859375 403.46875 192.394531 403.46875 C 195.664062 403.46875 198.578125 402.214844 201.488281 400.980469 C 205.945312 399.101562 209.214844 396.054688 210.9375 391.417969 C 212.59375 386.941406 213.960938 382.417969 214.183594 377.601562 C 214.230469 376.484375 215.28125 375.65625 216.421875 375.746094 C 217.699219 375.835938 218.238281 376.417969 218.214844 377.761719 C 218.058594 382.910156 218.84375 387.972656 219.894531 393.011719 C 220.65625 396.660156 222.515625 399.792969 225.761719 401.652344 C 228.472656 403.199219 231.449219 404.429688 234.742188 404.429688 C 235.546875 404.429688 236.351562 404.722656 237.136719 404.878906 C 237.113281 404.96875 237.09375 405.148438 237.09375 405.324219 Z M 214.992188 388.375 C 212.660156 395.832031 207.464844 400.847656 201.152344 405.191406 C 204.488281 406.648438 206.792969 409.109375 208.496094 412.132812 C 210.289062 415.3125 211.339844 418.785156 211.921875 422.390625 C 212.078125 423.328125 212.214844 424.269531 212.371094 425.210938 C 212.503906 426.105469 212.640625 426.980469 212.773438 427.875 C 212.886719 427.898438 212.996094 427.921875 213.132812 427.964844 C 214.25 418.628906 218.617188 411.484375 227.417969 407.117188 C 220.902344 404.632812 217.09375 400.332031 215.910156 393.839844 C 215.574219 392.023438 215.304688 390.1875 214.992188 388.375 Z M 214.992188 388.375 " fill-opacity="1" fill-rule="nonzero"/></g><g clip-path="url(#177e8fd3b5)"><path fill="#005ae0" d="M 273.300781 434.972656 C 272.003906 435.871094 270.792969 436.988281 269.382812 437.59375 C 265.574219 439.207031 263.203125 441.894531 262.308594 445.925781 C 261.613281 449.015625 260.941406 452.105469 260.292969 455.21875 C 260.132812 455.957031 259.957031 456.515625 259.148438 456.875 C 258.679688 457.074219 258.386719 457.703125 257.695312 458.53125 C 257.46875 457.324219 257.222656 456.402344 257.15625 455.484375 C 256.976562 452.550781 256.796875 449.621094 255.523438 446.886719 C 253.597656 442.789062 250.730469 439.902344 246.070312 439.160156 C 245.109375 439.003906 244.503906 438.601562 244.4375 437.550781 C 244.347656 436.453125 245.132812 436.136719 245.894531 435.890625 C 247.148438 435.511719 248.445312 435.265625 249.722656 434.953125 C 253.796875 433.964844 256.53125 431.703125 257.089844 427.339844 C 257.179688 426.578125 257.335938 425.816406 257.449219 425.054688 C 257.695312 423.351562 258.140625 422.859375 259.777344 422.570312 C 260.605469 422.433594 261.1875 422.65625 261.230469 423.644531 C 261.253906 424.226562 261.34375 424.808594 261.386719 425.390625 C 261.746094 430.808594 265.910156 434.054688 271.308594 434.101562 C 271.9375 434.101562 272.5625 434.28125 273.191406 434.390625 C 273.210938 434.59375 273.257812 434.773438 273.300781 434.972656 Z M 267.34375 436.226562 C 263.3125 435.511719 261.074219 432.871094 259.394531 429.355469 C 257.714844 433.027344 254.871094 435.332031 251.648438 437.371094 C 255.789062 439.742188 257.917969 443.371094 259.285156 447.714844 C 260.449219 442.855469 262.507812 438.667969 267.34375 436.226562 Z M 267.34375 436.226562 " fill-opacity="1" fill-rule="nonzero"/></g><g clip-path="url(#8c2abd96da)"><path fill="#005ae0" d="M 256.261719 355.410156 C 255.410156 355.882812 254.605469 356.441406 253.707031 356.777344 C 252.027344 357.40625 250.753906 358.457031 250.257812 360.160156 C 249.566406 362.578125 249.074219 365.039062 248.421875 367.480469 C 248.222656 368.242188 247.773438 368.9375 247.4375 369.652344 C 247.214844 369.652344 246.988281 369.652344 246.765625 369.652344 C 246.519531 368.980469 246.207031 368.308594 246.050781 367.59375 C 245.691406 366.027344 245.578125 364.371094 245.085938 362.847656 C 244.234375 360.203125 242.332031 358.59375 239.621094 357.851562 C 239.175781 357.71875 238.503906 357.179688 238.503906 356.84375 C 238.503906 356.351562 238.996094 355.816406 239.375 355.367188 C 239.601562 355.121094 240.003906 355.007812 240.339844 354.917969 C 243.542969 354 245.332031 351.875 245.980469 348.628906 C 246.09375 348.113281 246.742188 347.6875 247.148438 347.238281 C 247.59375 347.664062 248.355469 348.042969 248.445312 348.539062 C 249.164062 352.097656 251.421875 353.84375 254.871094 354.335938 C 255.320312 354.40625 255.746094 354.71875 256.171875 354.917969 C 256.214844 355.121094 256.238281 355.277344 256.261719 355.410156 Z M 247.234375 353.105469 C 246.050781 354.335938 244.75 355.679688 243.652344 356.824219 C 244.773438 358.367188 246.140625 360.25 247.503906 362.152344 C 248.019531 359.734375 249.496094 357.695312 251.265625 356.261719 C 249.765625 355.097656 248.378906 354.023438 247.234375 353.105469 Z M 247.234375 353.105469 " fill-opacity="1" fill-rule="nonzero"/></g><g clip-path="url(#9f37c7eccf)"><path fill="#005ae0" d="M 641.09375 208.222656 C 639.90625 208.960938 639.03125 209.992188 637.53125 210.484375 C 630.140625 212.902344 624.410156 217.402344 622.058594 225.039062 C 620.378906 230.523438 619.257812 236.191406 618.207031 241.855469 C 617.894531 243.535156 616.996094 244.542969 615.988281 245.617188 C 615.878906 245.730469 615.003906 245.4375 614.9375 245.191406 C 614.734375 244.429688 614.714844 243.601562 614.667969 242.796875 C 614.265625 235.519531 613.683594 228.242188 611.085938 221.34375 C 609.652344 217.558594 607.726562 213.976562 603.941406 212.074219 C 601.589844 210.886719 598.925781 210.371094 596.394531 209.566406 C 595.96875 209.429688 595.5 209.386719 595.097656 209.207031 C 594.289062 208.871094 594.066406 207.484375 594.785156 206.988281 C 595.253906 206.675781 595.859375 206.363281 596.394531 206.363281 C 599.664062 206.363281 602.578125 205.109375 605.488281 203.878906 C 609.945312 201.996094 613.214844 198.949219 614.9375 194.316406 C 616.59375 189.835938 617.960938 185.3125 618.183594 180.5 C 618.230469 179.378906 619.28125 178.550781 620.421875 178.640625 C 621.699219 178.730469 622.238281 179.3125 622.214844 180.65625 C 622.058594 185.804688 622.84375 190.867188 623.894531 195.90625 C 624.65625 199.554688 626.515625 202.691406 629.761719 204.550781 C 632.472656 206.09375 635.449219 207.324219 638.742188 207.324219 C 639.546875 207.324219 640.351562 207.617188 641.136719 207.773438 C 641.113281 207.863281 641.09375 208.042969 641.09375 208.222656 Z M 618.992188 191.269531 C 616.660156 198.726562 611.464844 203.742188 605.152344 208.085938 C 608.488281 209.542969 610.792969 212.007812 612.496094 215.027344 C 614.289062 218.210938 615.339844 221.679688 615.921875 225.285156 C 616.078125 226.226562 616.214844 227.167969 616.371094 228.105469 C 616.503906 229.003906 616.640625 229.875 616.773438 230.773438 C 616.886719 230.792969 616.996094 230.816406 617.132812 230.859375 C 618.25 221.523438 622.617188 214.378906 631.417969 210.011719 C 624.902344 207.527344 621.09375 203.226562 619.910156 196.734375 C 619.574219 194.921875 619.304688 193.085938 618.992188 191.269531 Z M 618.992188 191.269531 " fill-opacity="1" fill-rule="nonzero"/></g><g clip-path="url(#9b58bdb785)"><path fill="#005ae0" d="M 677.300781 237.871094 C 676.003906 238.765625 674.792969 239.886719 673.382812 240.488281 C 669.574219 242.101562 667.203125 244.789062 666.308594 248.820312 C 665.613281 251.910156 664.941406 255 664.292969 258.113281 C 664.132812 258.851562 663.957031 259.410156 663.148438 259.769531 C 662.679688 259.972656 662.386719 260.597656 661.695312 261.425781 C 661.46875 260.21875 661.222656 259.300781 661.15625 258.382812 C 660.976562 255.449219 660.796875 252.515625 659.523438 249.78125 C 657.597656 245.683594 654.730469 242.796875 650.070312 242.058594 C 649.109375 241.902344 648.503906 241.496094 648.4375 240.445312 C 648.347656 239.347656 649.132812 239.035156 649.894531 238.789062 C 651.148438 238.40625 652.445312 238.160156 653.722656 237.847656 C 657.796875 236.863281 660.53125 234.601562 661.089844 230.234375 C 661.179688 229.472656 661.335938 228.710938 661.449219 227.949219 C 661.695312 226.25 662.140625 225.753906 663.777344 225.464844 C 664.605469 225.328125 665.1875 225.554688 665.230469 226.539062 C 665.253906 227.121094 665.34375 227.703125 665.386719 228.285156 C 665.746094 233.703125 669.910156 236.953125 675.308594 236.996094 C 675.9375 236.996094 676.5625 237.175781 677.191406 237.289062 C 677.210938 237.488281 677.257812 237.667969 677.300781 237.871094 Z M 671.34375 239.125 C 667.3125 238.40625 665.074219 235.765625 663.394531 232.25 C 661.714844 235.921875 658.871094 238.226562 655.648438 240.265625 C 659.789062 242.640625 661.917969 246.265625 663.285156 250.613281 C 664.449219 245.753906 666.507812 241.566406 671.34375 239.125 Z M 671.34375 239.125 " fill-opacity="1" fill-rule="nonzero"/></g><g clip-path="url(#937988856e)"><path fill="#005ae0" d="M 660.261719 158.308594 C 659.410156 158.777344 658.605469 159.339844 657.707031 159.675781 C 656.027344 160.300781 654.753906 161.351562 654.257812 163.054688 C 653.566406 165.472656 653.074219 167.9375 652.421875 170.378906 C 652.222656 171.140625 651.773438 171.832031 651.4375 172.550781 C 651.214844 172.550781 650.988281 172.550781 650.765625 172.550781 C 650.519531 171.878906 650.207031 171.207031 650.050781 170.488281 C 649.691406 168.921875 649.578125 167.265625 649.085938 165.742188 C 648.234375 163.101562 646.332031 161.488281 643.621094 160.75 C 643.175781 160.613281 642.503906 160.078125 642.503906 159.742188 C 642.503906 159.25 642.996094 158.710938 643.375 158.261719 C 643.601562 158.015625 644.003906 157.90625 644.339844 157.816406 C 647.542969 156.898438 649.332031 154.769531 649.980469 151.523438 C 650.09375 151.007812 650.742188 150.582031 651.148438 150.132812 C 651.59375 150.558594 652.355469 150.941406 652.445312 151.433594 C 653.160156 154.992188 655.421875 156.742188 658.871094 157.234375 C 659.320312 157.300781 659.746094 157.613281 660.171875 157.816406 C 660.214844 158.015625 660.238281 158.171875 660.261719 158.308594 Z M 651.234375 156 C 650.050781 157.234375 648.75 158.578125 647.652344 159.71875 C 648.773438 161.265625 650.140625 163.144531 651.503906 165.046875 C 652.019531 162.628906 653.496094 160.59375 655.265625 159.160156 C 653.765625 157.996094 652.378906 156.917969 651.234375 156 Z M 651.234375 156 " fill-opacity="1" fill-rule="nonzero"/></g></svg>